<?xml version="1.0" encoding="utf-8"?>
<!-- Generator: Adobe Illustrator 27.0.0, SVG Export Plug-In . SVG Version: 6.00 Build 0)  -->
<svg version="1.1" id="Layer_1" xmlns="http://www.w3.org/2000/svg" xmlns:xlink="http://www.w3.org/1999/xlink" x="0px" y="0px"
	 viewBox="0 0 512 512" style="enable-background:new 0 0 512 512;" xml:space="preserve">
<style type="text/css">
	.st0{fill:#DC0000;}
</style>
<g id="XMLID_1_">
	<path id="XMLID_7_" class="st0" d="M254.72,0l15.85,9.12L166.34,70c0,0-31.56,15.85-42.64,28.05c-13.75,15.01-9.54,36.33,2.67,51.2
		c29.74,36.47,106.89,65.51,170.15,41.66c26.79-10.1,147.15-82.9,147.15-82.9l34.23,19.64v256.84l-21.74,12.48V249.97l-68.59,39.42
		v147.01l-39.7,22.72v-84.16l24.41-14.73v-62.14l-24.41,14.03c0,0-2.81-38.72,2.24-51.76c4.91-12.48,18.94-26.23,30.44-22.58
		c8.42,2.67,6.87,30.02,6.87,30.02s51.76-30.02,68.59-39.56c2.67-43.77-10.94-71.12-52.88-66.77
		c-19.08,1.96-34.23,12.06-46.85,20.76c-13.47,9.26-24.55,19.92-34.65,32.12c-19.22,23-39.84,54.57-42.5,92.02
		c-2.1,29.32,0.84,191.75,0.84,191.75L255.7,512L34.21,384.49V127.51L254.72,0z M173.08,201.29
		c-15.99-13.19-35.77-25.53-57.23-30.44c-14.45-3.23-28.9-1.4-39,4.35c-26.93,15.01-34.79,54.71-32.12,93.7
		c4.21,62,26.65,103.8,59.06,136.21c21.6,21.6,57.37,47.83,89.35,50.36c33.39,2.67,43.77-19.36,51.2-44.33
		c-25.25-17.25-53.3-31.7-78.97-48.53c-4.77,3.65-4.35,7.57-11.22,7.86c-6.17,0.14-13.19-5.75-17.39-11.22
		c-7.29-9.82-9.68-25.39-10.38-37.31c40.68,21.74,79.96,45.03,120.64,66.77C251.35,307.76,219.09,239.03,173.08,201.29
		L173.08,201.29z M372.27,67.33l-103.38,63.54c0,0-27.49,17.81-46.01,15.85c-6.03-0.7-15.99-5.75-16.55-10.38
		c-0.84-8.7,30.44-25.39,30.44-25.39l105.91-60.6L372.27,67.33L372.27,67.33z M166.2,290.65c-13.47-7.01-26.51-14.59-39-22.58
		c1.26-9.54,2.95-18.8,14.73-16.55C155.68,254.46,165.78,276.62,166.2,290.65L166.2,290.65z"/>
</g>
</svg>
